# xmcd
#
# Track frame offsets:
#	150
#	10501
#	20466
#	32998
#	46249
#	56995
#	67715
#	79913
#	89226
#	99423
#	108165
#	118323
#	128911
#	142206
#	152558
#	163029
#	174269
#	185381
#	194850
#	203261
#
# Disc length: 2860 seconds
#
# Revision: 1
# Processed by: cddbd v1.5.2PL0 Copyright (c) Steve Scherf et al.
# Submitted via: audiograbber 1.83.01
#
DISCID=120b2a14
DTITLE=Various Artist - Don't Fight It, Feel It - Gems From The SAR Vaults - 1
DTITLE=959-1962  [CD2)
DYEAR=2015
DGENRE=Oldies
TTITLE0=Sims Twins - Soothe Me
TTITLE1=Clifton White - Theme Of Tomorrow
TTITLE2=Soul Stirrers - He's Been A Shelter For Me
TTITLE3=Sam Cooke - Made For Me
TTITLE4=Johnnie Morisette - Dorothy 
TTITLE5=Johnnie Taylor - Rome (Wasn't Built In A Day)
TTITLE6=Soul Stirrers - I Love The Lord
TTITLE7=Kylo Turner - I'll Keep Thinking Of You
TTITLE8=L.C. Cooke - Teach Me
TTITLE9=Sims Twins - Double Portion Of Love
TTITLE10=Valentinos - Somewhere There's A Girl
TTITLE11=Johnnie Morisette - Never (Come Running Back To You)
TTITLE12=Soul Stirrers - I'm A Pilgrim
TTITLE13=L.C. Cooke - The Lover
TTITLE14=Soul Stirrers - I'm Thankful
TTITLE15=Johnnie Morisette - Sho' Miss You Baby
TTITLE16=Sims Twins - The Smile
TTITLE17=L.C. Cooke - Tell Me
TTITLE18=Johnnie Morisette - Wildest Girl In Town
TTITLE19=Soul Stirrers - Jesus Be A Fence Around Me
EXTD=
EXTT0=
EXTT1=
EXTT2=
EXTT3=
EXTT4=
EXTT5=
EXTT6=
EXTT7=
EXTT8=
EXTT9=
EXTT10=
EXTT11=
EXTT12=
EXTT13=
EXTT14=
EXTT15=
EXTT16=
EXTT17=
EXTT18=
EXTT19=
PLAYORDER=
